<svg xmlns="http://www.w3.org/2000/svg" viewBox="0 0 64 64" width="256" height="256" role="img" aria-label="Care Hub">
  <g stroke="#0f9182" stroke-width="2.5" stroke-linejoin="round" fill="none">
    <path d="M32 4 L56 18 L56 46 L32 60 L8 46 L8 18 Z"/>
    <path d="M32 44 C 22 36 18 30 22 24 C 25 20 30 22 32 26 C 34 22 39 20 42 24 C 46 30 42 36 32 44 Z" stroke-width="2.2"/>
    <path d="M32 28 L27 33 M32 28 L37 33 M27 33 L37 33" stroke-width="1.4"/>
  </g>
  <circle cx="32" cy="28" r="1.8" fill="#0f9182"/>
  <circle cx="27" cy="33" r="1.8" fill="#0f9182"/>
  <circle cx="37" cy="33" r="1.8" fill="#0f9182"/>
</svg>
